<svg width="1600" height="1200" viewBox="0 0 1600 1200" fill="none" xmlns="http://www.w3.org/2000/svg">
  <rect width="1600" height="1200" fill="#020202"/>
  <g opacity="0.4" stroke="#BC4749" stroke-width="1.6" stroke-linecap="round" stroke-linejoin="round">
    <path d="M93 882C196 806 296 785 414 790C531 795 628 844 739 829C862 812 940 730 1041 694C1141 658 1262 666 1360 620C1450 578 1504 507 1562 421"/>
    <path d="M62 940C173 850 282 824 409 829C537 834 646 879 760 860C884 840 972 757 1071 718C1171 679 1289 685 1385 642C1479 599 1536 533 1590 448"/>
    <path d="M33 998C151 892 272 860 407 866C543 872 666 915 782 892C906 867 1002 783 1100 744C1201 705 1317 709 1412 666C1508 622 1567 559 1600 490"/>
    <path d="M10 1050C129 934 255 896 401 902C547 908 678 947 798 922C923 896 1023 813 1120 773C1222 731 1339 733 1435 688C1526 646 1582 588 1600 529"/>
    <path d="M0 1094C111 975 236 939 387 944C540 949 686 983 812 958C938 933 1044 848 1143 804C1246 759 1363 758 1457 716C1540 679 1592 628 1600 579"/>
    <path d="M153 694C235 622 314 584 410 584C510 583 603 625 683 619C764 612 826 551 892 518C964 482 1049 476 1122 447C1200 417 1260 364 1311 297"/>
    <path d="M119 735C208 649 300 607 405 607C511 607 615 647 699 639C782 630 844 567 908 536C980 501 1062 497 1134 468C1212 438 1272 385 1326 316"/>
    <path d="M81 777C177 676 279 628 399 629C520 630 627 666 714 656C798 646 862 584 927 555C997 523 1081 518 1153 489C1231 458 1292 404 1350 331"/>
    <path d="M46 818C148 703 259 649 392 650C525 652 644 686 730 674C815 663 883 603 946 576C1016 547 1099 543 1173 513C1252 482 1314 425 1375 346"/>
    <path d="M16 855C126 730 245 672 388 673C531 674 660 707 747 693C833 680 902 621 968 596C1040 569 1124 568 1198 538C1279 505 1340 446 1399 362"/>
    <path d="M302 413C358 389 413 360 477 354C545 347 604 377 669 372C739 366 791 319 849 292C914 262 991 261 1056 240C1124 219 1182 177 1238 124"/>
    <path d="M266 453C330 420 397 387 472 379C547 371 613 397 681 391C751 385 805 340 861 315C925 285 1000 284 1064 262C1132 239 1192 198 1252 141"/>
    <path d="M231 490C303 448 381 411 468 402C552 393 624 418 692 411C762 404 819 361 876 337C940 308 1013 307 1078 285C1147 262 1208 219 1270 156"/>
    <path d="M196 529C276 475 363 434 462 424C557 414 636 440 705 431C775 423 833 382 891 359C954 331 1027 329 1092 307C1162 284 1224 238 1287 172"/>
    <path d="M158 566C247 500 348 456 457 446C561 435 646 460 717 452C788 444 848 403 907 381C970 356 1041 353 1107 330C1179 306 1241 258 1304 188"/>
  </g>
  <g opacity="0.3" stroke="#F2E8CF" stroke-width="1" stroke-dasharray="4 8" stroke-linecap="round">
    <path d="M73 858C178 773 283 749 410 756C538 763 649 810 762 796C884 780 974 699 1074 663C1173 627 1284 634 1378 588C1462 547 1514 485 1572 403"/>
    <path d="M164 658C250 592 327 557 421 559C513 560 596 604 674 600C753 596 815 539 881 506C956 469 1043 465 1120 437C1204 406 1268 351 1324 279"/>
    <path d="M214 386C282 353 349 321 428 316C511 311 586 345 663 340C739 335 797 289 857 261C921 231 994 229 1059 209C1128 187 1188 147 1248 97"/>
  </g>
  <g opacity="0.18" fill="#0C0C0C">
    <path d="M0 785C137 746 275 742 422 734C556 727 640 672 706 607C790 523 841 409 949 352C1071 287 1238 286 1373 236C1461 204 1536 154 1600 96V1200H0V785Z"/>
  </g>
  <g opacity="0.34" stroke="#BC4749" stroke-width="2.4">
    <path d="M690 594C731 565 767 527 800 474C832 525 871 566 920 597"/>
    <path d="M725 632C754 612 781 580 800 537C820 579 847 612 879 634"/>
  </g>
</svg>
